<?xml version="1.0" encoding="UTF-8"?>
<svg id="Layer_1" data-name="Layer 1" xmlns="http://www.w3.org/2000/svg" version="1.1" viewBox="0 0 50 50">
  <defs>
    <style>
      .cls-1 {
        fill: none;
        stroke: #000;
        stroke-linecap: round;
        stroke-miterlimit: 10;
        stroke-width: 1.5px;
      }

      .cls-2 {
        fill: #000;
        stroke-width: 0px;
      }
    </style>
  </defs>
  <rect class="cls-1" x="1.26" y="1.26" width="47.48" height="47.48" rx="6.3" ry="6.3"/>
  <g>
    <path class="cls-2" d="M11.45,25.83c1.65,1.41,3.52,3.02,7.13,3.02,3.61,0,5.48-1.6,7.13-3.02,1.56-1.34,2.9-2.49,5.71-2.49s4.15,1.15,5.71,2.49c.46.39,1.14.34,1.53-.12.39-.46.34-1.14-.12-1.53-1.65-1.41-3.52-3.02-7.13-3.02s-5.48,1.6-7.13,3.02c-1.56,1.34-2.9,2.49-5.71,2.49s-4.15-1.15-5.71-2.49c-.46-.39-1.14-.34-1.53.12-.39.46-.34,1.14.12,1.53Z"/>
    <path class="cls-2" d="M11.45,19.87c1.65,1.41,3.52,3.02,7.13,3.02s5.48-1.6,7.13-3.02c1.56-1.34,2.9-2.49,5.71-2.49s4.15,1.15,5.71,2.49c.46.39,1.14.34,1.53-.12.39-.46.34-1.14-.12-1.53-1.65-1.41-3.52-3.02-7.13-3.02s-5.48,1.6-7.13,3.02c-1.56,1.34-2.9,2.49-5.71,2.49s-4.15-1.15-5.71-2.49c-.46-.39-1.14-.34-1.53.12-.39.46-.34,1.14.12,1.53Z"/>
    <path class="cls-2" d="M38.55,30.13c-1.65-1.41-3.52-3.02-7.13-3.02s-5.48,1.6-7.13,3.02c-1.56,1.34-2.9,2.49-5.71,2.49s-4.15-1.15-5.71-2.49h0c-.46-.39-1.14-.34-1.53.12-.39.46-.34,1.14.12,1.53,1.65,1.41,3.52,3.02,7.13,3.02s5.48-1.6,7.13-3.02c1.56-1.34,2.9-2.49,5.71-2.49s4.15,1.15,5.71,2.49c.46.39,1.14.34,1.53-.12.39-.46.34-1.14-.12-1.53Z"/>
  </g>
  <g>
    <path class="cls-2" d="M35.01,33.11h-1.18c-.43,0-.79.35-.79.79v3.56c0,.43.35.79.79.79h1.18c1.09,0,1.97-.88,1.97-1.97v-1.2c0-1.09-.88-1.97-1.97-1.97h0ZM35.81,36.28c0,.44-.36.8-.8.8h-.8v-2.8h.8c.44,0,.8.36.8.8v1.2Z"/>
    <path class="cls-2" d="M31.05,33.11h-1.95c-.32,0-.58.26-.58.58s.26.58.58.58h1.82v.82h-1.82c-.32,0-.58.26-.58.58s.26.58.58.58h1.82v.82h-1.82c-.32,0-.58.26-.58.58s.26.58.58.58h1.95c.57,0,1.03-.46,1.03-1.03v-3.07c0-.57-.46-1.03-1.03-1.03h0Z"/>
  </g>
</svg>